<?xml version="1.0" standalone="no"?>
<!DOCTYPE svg PUBLIC "-//W3C//DTD SVG 20010904//EN"
 "http://www.w3.org/TR/2001/REC-SVG-20010904/DTD/svg10.dtd">
<svg version="1.0" xmlns="http://www.w3.org/2000/svg"
 width="366.000000pt" height="366.000000pt" viewBox="0 0 366.000000 366.000000"
 preserveAspectRatio="xMidYMid meet">
<metadata>
Created by potrace 1.11, written by Peter Selinger 2001-2013
</metadata>
<g transform="translate(0.000000,366.000000) scale(0.100000,-0.100000)"
fill="#000000" stroke="none">
<path d="M1605 3600 c-339 -52 -613 -166 -865 -361 -349 -270 -582 -655 -667
-1102 -25 -130 -25 -484 0 -614 130 -684 611 -1217 1270 -1407 173 -50 256
-61 487 -61 231 0 314 11 487 61 595 172 1055 632 1227 1227 50 173 61 256 61
487 0 231 -11 314 -61 487 -171 595 -632 1055 -1226 1227 -158 45 -252 58
-458 61 -107 2 -222 0 -255 -5z m364 -60 c426 -38 806 -219 1098 -523 657
-685 634 -1767 -50 -2424 -685 -657 -1767 -634 -2424 50 -657 685 -634 1767
50 2424 314 301 720 469 1167 482 25 0 96 -4 159 -9z"/>
<path d="M1658 3345 c-2 -3 4 -64 14 -137 10 -73 17 -136 16 -140 -2 -4 -36
51 -77 122 -72 128 -91 154 -91 128 -1 -41 45 -348 52 -348 11 0 10 9 -8 138
-8 62 -14 120 -12 128 2 8 36 -44 76 -116 40 -71 77 -130 83 -130 5 0 7 17 4
38 -3 20 -14 99 -25 175 -18 135 -22 152 -32 142z"/>
<path d="M1754 3273 c3 -42 6 -123 6 -180 0 -62 4 -103 10 -103 12 0 13 68 3
238 -3 70 -10 122 -16 122 -6 0 -8 -28 -3 -77z"/>
<path d="M1826 3233 c-3 -65 -8 -144 -10 -175 -2 -32 -1 -60 4 -63 4 -3 11 33
15 80 l7 85 54 0 c30 0 54 5 54 10 0 6 -23 10 -50 10 -61 0 -65 7 -56 93 l7
64 55 -5 c36 -3 54 -1 54 7 0 7 -23 11 -64 11 l-64 0 -6 -117z"/>
<path d="M2062 3313 c-33 -26 -80 -259 -60 -300 25 -53 106 -56 131 -5 8 15
22 68 31 118 28 156 20 190 -44 200 -26 4 -42 1 -58 -13z m79 -13 c15 -8 19
-21 19 -58 -1 -61 -34 -217 -50 -237 -20 -24 -67 -19 -86 10 -15 23 -15 32 5
137 12 62 28 122 36 135 17 25 44 29 76 13z"/>
<path d="M1408 3138 l3 -163 -87 130 c-101 152 -92 140 -100 132 -6 -6 89
-323 100 -335 18 -17 11 17 -23 126 -21 67 -35 120 -31 117 4 -2 38 -52 76
-109 38 -58 73 -106 77 -106 4 0 7 61 5 135 -2 74 -1 135 2 135 3 0 20 -51 39
-113 37 -123 46 -144 53 -131 7 12 -95 337 -107 341 -6 2 -9 -56 -7 -159z"/>
<path d="M2286 3257 c-21 -15 -95 -220 -96 -264 0 -65 89 -98 129 -47 22 27
91 226 91 261 0 46 -83 80 -124 50z m86 -24 c10 -9 18 -25 18 -35 0 -30 -69
-220 -87 -240 -31 -35 -93 -10 -93 37 0 25 50 177 74 223 19 37 57 43 88 15z"/>
<path d="M2431 3049 c-46 -88 -82 -162 -80 -163 17 -15 74 -36 97 -36 37 0 58
24 115 134 68 128 64 167 -19 209 l-30 16 -83 -160z m136 105 c18 -14 33 -31
33 -39 0 -26 -101 -214 -126 -234 -21 -16 -30 -18 -55 -9 -17 6 -33 16 -35 23
-5 13 132 285 143 285 4 0 21 -11 40 -26z"/>
<path d="M1040 3150 c-33 -33 -25 -76 34 -185 58 -108 90 -141 128 -132 78 20
81 72 13 202 -27 50 -57 100 -68 113 -26 28 -79 30 -107 2z m102 -28 c12 -16
43 -70 67 -120 39 -79 43 -94 33 -116 -15 -34 -57 -44 -84 -20 -27 25 -118
207 -118 238 0 50 66 61 102 18z"/>
<path d="M2367 2618 c-112 -128 -288 -355 -314 -404 l-27 -52 17 -58 16 -59
-83 -125 c-47 -69 -98 -144 -116 -168 l-31 -43 -18 23 c-10 13 -62 88 -116
167 -94 137 -98 145 -87 175 31 90 22 170 -30 276 -37 77 -154 198 -238 247
-66 38 -136 59 -173 49 -114 -28 -45 -365 107 -519 72 -73 145 -110 221 -113
l60 -2 122 -172 123 -172 -22 -31 c-146 -210 -239 -319 -374 -438 -137 -120
-151 -143 -135 -213 16 -69 24 -76 91 -76 93 0 109 20 190 236 22 58 56 134
76 167 64 107 196 307 203 307 7 0 144 -208 200 -306 22 -39 59 -119 81 -178
78 -207 94 -226 194 -226 53 0 54 0 70 40 9 22 16 58 16 80 0 45 -14 61 -190
221 -89 80 -199 211 -300 356 l-43 62 124 173 124 173 64 5 c59 5 66 8 98 45
59 68 307 479 300 498 -1 5 -74 -90 -160 -212 -87 -121 -161 -221 -167 -221
-28 0 -6 40 133 242 175 254 171 248 160 248 -4 0 -80 -102 -168 -225 -148
-207 -175 -239 -189 -217 -2 4 67 113 155 242 87 128 157 236 154 239 -4 3 -9
1 -13 -5 -4 -6 -78 -110 -166 -232 -110 -152 -163 -219 -173 -215 -8 3 -12 11
-10 17 3 6 65 99 139 206 158 229 172 250 165 250 -3 0 -30 -28 -60 -62z"/>
<path d="M651 1064 c-62 -42 -110 -78 -107 -81 3 -3 28 9 57 28 l52 33 19 -27
c28 -39 78 -37 112 3 27 32 25 55 -7 101 -13 17 -20 14 -126 -57z m134 12 c8
-25 6 -31 -18 -52 -35 -30 -48 -30 -77 1 -26 27 -26 27 22 61 41 29 60 27 73
-10z"/>
<path d="M2910 1070 c16 -33 30 -62 30 -65 0 -4 -33 -3 -72 1 -40 3 -70 3 -66
-1 4 -4 41 -11 82 -15 64 -6 81 -12 126 -45 28 -20 54 -34 58 -30 4 3 0 10 -8
15 -65 36 -103 76 -132 135 -18 36 -36 65 -40 65 -5 0 5 -27 22 -60z"/>
<path d="M732 944 c-57 -47 -101 -88 -98 -91 3 -3 25 12 51 32 44 37 46 37 65
20 30 -27 25 -49 -21 -90 -22 -20 -38 -39 -35 -42 9 -10 74 51 85 80 7 19 17
27 34 27 31 0 67 39 67 73 0 14 -10 37 -22 52 l-23 25 -103 -86z m138 4 c0
-20 -46 -58 -70 -58 -9 0 -25 9 -36 21 -19 21 -19 21 25 61 l45 39 18 -23 c10
-13 18 -31 18 -40z"/>
<path d="M1560 935 l0 -75 33 1 c30 2 30 2 5 6 -23 4 -28 9 -28 33 0 24 5 29
28 33 l27 4 -27 2 c-24 1 -28 5 -28 30 0 25 5 30 28 34 25 4 25 4 -5 6 l-33 1
0 -75z"/>
<path d="M1642 998 c-19 -19 -14 -46 13 -64 26 -17 33 -48 13 -60 -6 -4 -17 1
-25 11 -11 16 -13 16 -13 3 0 -18 34 -33 50 -23 19 12 11 54 -15 71 -26 17
-33 48 -13 60 6 4 18 -2 25 -12 14 -19 15 -19 11 1 -4 23 -28 31 -46 13z"/>
<path d="M1718 1003 c12 -2 32 -2 45 0 12 2 2 4 -23 4 -25 0 -35 -2 -22 -4z"/>
<path d="M1857 1004 c-4 -4 -7 -14 -7 -23 0 -11 3 -10 15 5 13 16 16 17 26 4
9 -13 10 -13 6 0 -4 16 -29 25 -40 14z"/>
<path d="M1924 997 c-3 -8 -4 -41 -2 -73 3 -50 6 -59 22 -59 11 0 21 7 23 15
4 13 3 13 -6 0 -18 -26 -32 3 -29 60 3 53 21 78 32 43 4 -15 5 -15 3 2 -3 23
-35 33 -43 12z"/>
<path d="M2000 995 c-8 -10 -9 -15 -2 -15 6 0 13 -27 15 -62 3 -62 3 -62 5 15
1 42 0 77 -2 77 -2 0 -9 -7 -16 -15z"/>
<path d="M2052 962 c-25 -44 -26 -52 -12 -52 6 0 9 3 9 8 -3 18 2 32 17 46 8
9 14 21 12 27 -2 6 -14 -7 -26 -29z"/>
<path d="M2745 940 c-34 -35 -45 -17 93 -139 86 -77 126 -95 47 -23 -46 43
-50 63 -14 82 27 15 35 13 74 -21 20 -18 38 -29 41 -27 9 9 -66 68 -87 68 -13
0 -23 10 -30 28 -10 28 -54 62 -81 62 -8 0 -27 -14 -43 -30z m112 -38 c4 -16
-1 -30 -15 -44 l-20 -21 -41 32 c-23 18 -41 36 -41 41 0 5 12 18 26 29 25 20
27 20 56 3 16 -9 31 -27 35 -40z"/>
<path d="M1872 926 c-31 -45 -29 -66 6 -65 23 2 24 2 5 6 -29 5 -29 16 -1 53
12 16 20 32 17 34 -2 3 -14 -10 -27 -28z"/>
<path d="M826 824 l-89 -95 29 -30 c15 -16 32 -29 38 -29 5 0 -4 15 -22 33
l-32 33 39 38 c41 40 45 40 91 2 15 -12 12 -6 -7 14 l-33 34 42 43 42 43 36
-33 35 -32 -34 38 c-19 20 -37 37 -40 37 -4 0 -46 -43 -95 -96z"/>
<path d="M2671 860 c-18 -15 -32 -33 -30 -38 2 -5 43 -50 90 -100 l86 -91 37
31 c20 17 35 33 31 36 -3 3 -19 -7 -35 -23 l-30 -29 -43 43 -42 42 34 29 c19
16 32 32 30 35 -3 2 -18 -9 -34 -25 l-29 -30 -43 42 -43 42 32 33 c39 40 34
42 -11 3z"/>
<path d="M917 740 c-43 -56 -77 -105 -75 -110 2 -6 27 21 57 60 29 39 57 72
61 75 5 3 -9 -37 -30 -90 -21 -52 -35 -95 -31 -95 5 0 28 15 52 33 125 94 127
93 46 -10 -27 -35 -44 -63 -39 -63 14 0 172 204 162 208 -5 2 -49 -26 -98 -62
-49 -37 -92 -66 -95 -66 -3 0 6 28 20 63 54 132 62 157 55 157 -4 0 -42 -45
-85 -100z"/>
<path d="M2618 815 c-3 -4 14 -52 38 -107 24 -56 42 -103 40 -105 -2 -2 -43
28 -90 68 -48 39 -90 68 -94 65 -3 -4 -2 -10 4 -14 5 -4 54 -42 107 -86 54
-43 100 -76 103 -74 2 3 -19 62 -49 132 -29 70 -56 124 -59 121z"/>
<path d="M1085 629 c-71 -109 -86 -137 -67 -126 16 11 145 217 139 223 -3 3
-36 -41 -72 -97z"/>
<path d="M2492 698 c8 -13 41 -65 73 -115 32 -51 63 -93 68 -93 5 0 3 10 -5
23 -8 12 -40 64 -72 115 -32 50 -63 92 -68 92 -6 0 -4 -10 4 -22z"/>
<path d="M1173 698 c-5 -7 -31 -53 -57 -101 -35 -65 -46 -95 -42 -113 8 -32
46 -50 74 -35 22 12 126 195 120 212 -2 6 -30 -37 -61 -95 -56 -102 -67 -113
-101 -100 -26 10 -18 43 35 141 28 52 49 97 46 99 -2 3 -9 -1 -14 -8z"/>
<path d="M2380 654 c0 -6 116 -221 126 -232 1 -2 23 8 49 23 55 33 53 45 -3
16 l-41 -21 -56 105 c-50 93 -75 130 -75 109z"/>
<path d="M1246 525 c-27 -69 -46 -129 -42 -132 3 -3 9 3 13 13 4 10 20 51 35
89 l28 70 -6 -97 c-3 -54 -2 -98 3 -98 4 0 32 34 62 75 30 41 56 73 58 72 2
-2 -12 -43 -31 -90 -19 -48 -30 -87 -25 -87 5 0 12 8 16 18 3 9 25 65 48 125
24 59 37 107 31 107 -6 -1 -42 -42 -80 -93 l-68 -92 6 105 c4 58 9 113 12 123
3 9 2 17 -3 17 -4 0 -30 -56 -57 -125z"/>
<path d="M2308 630 l-37 -20 36 -83 c19 -45 42 -99 51 -119 17 -43 32 -46 82
-17 35 20 30 21 -36 3 -17 -4 -24 3 -42 43 l-21 48 42 19 c23 11 37 21 30 23
-7 2 -21 0 -32 -6 -35 -19 -50 -12 -71 35 -11 26 -20 48 -20 49 0 2 16 9 35
15 19 6 35 16 35 21 0 13 -10 11 -52 -11z"/>
<path d="M2168 583 c-24 -6 -24 -8 19 -144 31 -103 39 -119 57 -119 37 0 66
28 66 63 0 38 -35 153 -56 185 -14 21 -43 27 -86 15z m62 -13 c18 -10 70 -152
70 -192 0 -19 -18 -35 -44 -40 -16 -2 -25 15 -57 110 l-38 113 22 9 c29 11 26
11 47 0z"/>
<path d="M1521 437 c-13 -69 -21 -131 -19 -139 3 -7 10 17 17 54 l13 67 47 -5
c33 -3 41 -2 26 5 -11 5 -31 10 -44 10 -23 1 -23 3 -17 53 4 28 9 55 12 59 2
4 21 3 41 -1 21 -5 39 -7 42 -4 8 8 -3 12 -50 19 l-45 7 -23 -125z"/>
<path d="M1676 525 c-16 -17 -22 -43 -31 -145 -6 -78 9 -110 55 -110 47 0 57
20 65 130 6 89 5 103 -10 120 -22 24 -58 26 -79 5z m73 -23 c13 -24 -2 -187
-19 -207 -16 -19 -44 -19 -60 0 -16 19 -6 190 11 211 16 20 57 17 68 -4z"/>
<path d="M1943 483 c4 -32 11 -93 18 -135 11 -75 13 -78 38 -78 15 0 37 7 50
16 22 16 23 21 17 95 -4 44 -12 96 -19 116 -11 36 -14 38 -61 41 l-49 3 6 -58z
m79 30 c20 -23 41 -178 28 -203 -11 -21 -60 -33 -65 -16 -9 27 -33 220 -29
228 9 14 50 9 66 -9z"/>
<path d="M1810 511 c-5 -11 -10 -63 -10 -115 0 -83 3 -99 20 -116 26 -26 55
-25 81 1 20 20 21 28 15 123 -4 55 -12 106 -18 113 -17 21 -76 16 -88 -6z m75
-7 c13 -13 15 -35 13 -116 -3 -93 -5 -101 -25 -109 -43 -16 -57 9 -61 113 -4
79 -1 97 13 111 21 21 39 22 60 1z"/>
</g>
</svg>
